<?xml version="1.0" encoding="UTF-8" standalone="no"?>
<!DOCTYPE svg PUBLIC "-//W3C//DTD SVG 1.1//EN"
 "http://www.w3.org/Graphics/SVG/1.1/DTD/svg11.dtd">
<!-- Generated by graphviz version 12.2.1 (20241206.2353)
 -->
<!-- Title: HloModule Pages: 1 -->
<svg width="458pt" height="536pt"
 viewBox="0.00 0.00 457.89 535.90" xmlns="http://www.w3.org/2000/svg" xmlns:xlink="http://www.w3.org/1999/xlink">
<g id="graph0" class="graph" transform="scale(1 1) rotate(0) translate(4 531.9)">
<title>HloModule</title>
<polygon fill="white" stroke="none" points="-4,4 -4,-531.9 453.89,-531.9 453.89,4 -4,4"/>
<!-- p0.1 -->
<g id="node1" class="node">
<title>p0.1</title>
<ellipse fill="none" stroke="black" cx="67" cy="-404.92" rx="67" ry="28.99"/>
<text text-anchor="middle" x="67" y="-408.12" font-family="Times,serif" font-size="14.00">p0.1 </text>
<text text-anchor="middle" x="67" y="-391.62" font-family="Times,serif" font-size="14.00"> f32[4096,1,4]</text>
</g>
<!-- custom&#45;call.52 -->
<g id="node8" class="node">
<title>custom&#45;call.52</title>
<ellipse fill="none" stroke="black" cx="218" cy="-310.94" rx="66.19" ry="18"/>
<text text-anchor="middle" x="218" y="-305.89" font-family="Times,serif" font-size="14.00">custom&#45;call.52</text>
</g>
<!-- p0.1&#45;&gt;custom&#45;call.52 -->
<g id="edge2" class="edge">
<title>p0.1&#45;&gt;custom&#45;call.52</title>
<path fill="none" stroke="black" d="M105.1,-380.71C128.69,-366.34 158.81,-348 182,-333.87"/>
<polygon fill="black" stroke="black" points="183.78,-336.88 190.5,-328.69 180.14,-330.9 183.78,-336.88"/>
</g>
<!-- p6.7 -->
<g id="node2" class="node">
<title>p6.7</title>
<ellipse fill="none" stroke="black" cx="218" cy="-498.91" rx="52.15" ry="28.99"/>
<text text-anchor="middle" x="218" y="-502.11" font-family="Times,serif" font-size="14.00">p6.7 </text>
<text text-anchor="middle" x="218" y="-485.61" font-family="Times,serif" font-size="14.00"> f32[4096]</text>
</g>
<!-- custom&#45;call.42 -->
<g id="node7" class="node">
<title>custom&#45;call.42</title>
<ellipse fill="none" stroke="black" cx="218" cy="-404.92" rx="66.19" ry="18"/>
<text text-anchor="middle" x="218" y="-399.87" font-family="Times,serif" font-size="14.00">custom&#45;call.42</text>
</g>
<!-- p6.7&#45;&gt;custom&#45;call.42 -->
<g id="edge1" class="edge">
<title>p6.7&#45;&gt;custom&#45;call.42</title>
<path fill="none" stroke="black" d="M218,-469.56C218,-458.47 218,-445.77 218,-434.65"/>
<polygon fill="black" stroke="black" points="221.5,-434.86 218,-424.86 214.5,-434.86 221.5,-434.86"/>
</g>
<!-- reshape.53 -->
<g id="node3" class="node">
<title>reshape.53</title>
<ellipse fill="none" stroke="black" cx="225" cy="-216.96" rx="59.57" ry="28.99"/>
<text text-anchor="middle" x="225" y="-220.16" font-family="Times,serif" font-size="14.00">reshape.53 </text>
<text text-anchor="middle" x="225" y="-203.66" font-family="Times,serif" font-size="14.00"> f32[4096,4]</text>
</g>
<!-- dot.54 -->
<g id="node5" class="node">
<title>dot.54</title>
<ellipse fill="none" stroke="black" cx="297" cy="-122.97" rx="59.57" ry="28.99"/>
<text text-anchor="middle" x="297" y="-126.17" font-family="Times,serif" font-size="14.00">dot.54 </text>
<text text-anchor="middle" x="297" y="-109.67" font-family="Times,serif" font-size="14.00"> f32[4,4096]</text>
</g>
<!-- reshape.53&#45;&gt;dot.54 -->
<g id="edge7" class="edge">
<title>reshape.53&#45;&gt;dot.54</title>
<path fill="none" stroke="black" d="M245.82,-189.35C253.14,-180.01 261.47,-169.36 269.26,-159.41"/>
<polygon fill="black" stroke="black" points="271.88,-161.74 275.29,-151.71 266.37,-157.43 271.88,-161.74"/>
</g>
<!-- p7.8 -->
<g id="node4" class="node">
<title>p7.8</title>
<ellipse fill="none" stroke="black" cx="376" cy="-310.94" rx="73.89" ry="28.99"/>
<text text-anchor="middle" x="376" y="-314.14" font-family="Times,serif" font-size="14.00">p7.8 </text>
<text text-anchor="middle" x="376" y="-297.64" font-family="Times,serif" font-size="14.00"> f32[4096,4096]</text>
</g>
<!-- custom&#45;call.43 -->
<g id="node10" class="node">
<title>custom&#45;call.43</title>
<ellipse fill="none" stroke="black" cx="372" cy="-216.96" rx="66.19" ry="18"/>
<text text-anchor="middle" x="372" y="-211.91" font-family="Times,serif" font-size="14.00">custom&#45;call.43</text>
</g>
<!-- p7.8&#45;&gt;custom&#45;call.43 -->
<g id="edge6" class="edge">
<title>p7.8&#45;&gt;custom&#45;call.43</title>
<path fill="none" stroke="black" d="M374.77,-281.59C374.28,-270.5 373.73,-257.81 373.25,-246.68"/>
<polygon fill="black" stroke="black" points="376.75,-246.73 372.82,-236.89 369.76,-247.04 376.75,-246.73"/>
</g>
<!-- reshape.57 -->
<g id="node6" class="node">
<title>reshape.57</title>
<ellipse fill="none" stroke="black" cx="297" cy="-28.99" rx="74.42" ry="28.99"/>
<text text-anchor="middle" x="297" y="-32.19" font-family="Times,serif" font-size="14.00">reshape.57 </text>
<text text-anchor="middle" x="297" y="-15.69" font-family="Times,serif" font-size="14.00"> f32[1,4,4,1024]</text>
</g>
<!-- dot.54&#45;&gt;reshape.57 -->
<g id="edge9" class="edge">
<title>dot.54&#45;&gt;reshape.57</title>
<path fill="none" stroke="black" d="M297,-93.63C297,-86.11 297,-77.85 297,-69.84"/>
<polygon fill="black" stroke="black" points="300.5,-69.92 297,-59.92 293.5,-69.92 300.5,-69.92"/>
</g>
<!-- custom&#45;call.42&#45;&gt;custom&#45;call.52 -->
<g id="edge3" class="edge">
<title>custom&#45;call.42&#45;&gt;custom&#45;call.52</title>
<path fill="none" stroke="black" d="M218,-386.62C218,-373.64 218,-355.6 218,-340.49"/>
<polygon fill="black" stroke="black" points="221.5,-340.68 218,-330.68 214.5,-340.68 221.5,-340.68"/>
</g>
<!-- custom&#45;call.52&#45;&gt;reshape.53 -->
<g id="edge5" class="edge">
<title>custom&#45;call.52&#45;&gt;reshape.53</title>
<path fill="none" stroke="black" d="M219.32,-292.64C220.07,-282.78 221.04,-269.99 221.97,-257.79"/>
<polygon fill="black" stroke="black" points="225.45,-258.14 222.72,-247.9 218.47,-257.6 225.45,-258.14"/>
</g>
<!-- constant.51 -->
<g id="node9" class="node">
<title>constant.51</title>
<ellipse fill="none" stroke="black" cx="356" cy="-404.92" rx="53.4" ry="18"/>
<text text-anchor="middle" x="356" y="-399.87" font-family="Times,serif" font-size="14.00">constant.51</text>
</g>
<!-- constant.51&#45;&gt;custom&#45;call.52 -->
<g id="edge4" class="edge">
<title>constant.51&#45;&gt;custom&#45;call.52</title>
<path fill="none" stroke="black" d="M332.59,-388.32C310.32,-373.48 276.59,-350.99 251.48,-334.26"/>
<polygon fill="black" stroke="black" points="253.51,-331.4 243.25,-328.77 249.63,-337.23 253.51,-331.4"/>
</g>
<!-- custom&#45;call.43&#45;&gt;dot.54 -->
<g id="edge8" class="edge">
<title>custom&#45;call.43&#45;&gt;dot.54</title>
<path fill="none" stroke="black" d="M358.24,-199.09C349.08,-187.85 336.72,-172.69 325.49,-158.92"/>
<polygon fill="black" stroke="black" points="328.32,-156.84 319.28,-151.31 322.89,-161.27 328.32,-156.84"/>
</g>
</g>
</svg>
