<?xml version="1.0" encoding="UTF-8" standalone="no"?>
<!DOCTYPE svg PUBLIC "-//W3C//DTD SVG 1.1//EN"
 "http://www.w3.org/Graphics/SVG/1.1/DTD/svg11.dtd">
<!-- Generated by graphviz version 12.2.1 (20241206.2353)
 -->
<!-- Title: HloModule Pages: 1 -->
<svg width="458pt" height="630pt"
 viewBox="0.00 0.00 457.89 629.88" xmlns="http://www.w3.org/2000/svg" xmlns:xlink="http://www.w3.org/1999/xlink">
<g id="graph0" class="graph" transform="scale(1 1) rotate(0) translate(4 625.88)">
<title>HloModule</title>
<polygon fill="white" stroke="none" points="-4,4 -4,-625.88 453.89,-625.88 453.89,4 -4,4"/>
<!-- p0.1 -->
<g id="node1" class="node">
<title>p0.1</title>
<ellipse fill="none" stroke="black" cx="71.77" cy="-498.91" rx="71.77" ry="28.99"/>
<text text-anchor="middle" x="71.77" y="-502.11" font-family="Times,serif" font-size="14.00">p0.1 </text>
<text text-anchor="middle" x="71.77" y="-485.61" font-family="Times,serif" font-size="14.00"> f32[4096,64,4]</text>
</g>
<!-- custom&#45;call.65 -->
<g id="node9" class="node">
<title>custom&#45;call.65</title>
<ellipse fill="none" stroke="black" cx="227.77" cy="-404.92" rx="66.19" ry="18"/>
<text text-anchor="middle" x="227.77" y="-399.87" font-family="Times,serif" font-size="14.00">custom&#45;call.65</text>
</g>
<!-- p0.1&#45;&gt;custom&#45;call.65 -->
<g id="edge2" class="edge">
<title>p0.1&#45;&gt;custom&#45;call.65</title>
<path fill="none" stroke="black" d="M111.54,-474.46C136.03,-460.02 167.19,-441.64 191.08,-427.55"/>
<polygon fill="black" stroke="black" points="192.7,-430.67 199.54,-422.57 189.14,-424.64 192.7,-430.67"/>
</g>
<!-- p8.9 -->
<g id="node2" class="node">
<title>p8.9</title>
<ellipse fill="none" stroke="black" cx="227.77" cy="-592.89" rx="52.15" ry="28.99"/>
<text text-anchor="middle" x="227.77" y="-596.09" font-family="Times,serif" font-size="14.00">p8.9 </text>
<text text-anchor="middle" x="227.77" y="-579.59" font-family="Times,serif" font-size="14.00"> f32[4096]</text>
</g>
<!-- custom&#45;call.57 -->
<g id="node8" class="node">
<title>custom&#45;call.57</title>
<ellipse fill="none" stroke="black" cx="227.77" cy="-498.91" rx="66.19" ry="18"/>
<text text-anchor="middle" x="227.77" y="-493.86" font-family="Times,serif" font-size="14.00">custom&#45;call.57</text>
</g>
<!-- p8.9&#45;&gt;custom&#45;call.57 -->
<g id="edge1" class="edge">
<title>p8.9&#45;&gt;custom&#45;call.57</title>
<path fill="none" stroke="black" d="M227.77,-563.54C227.77,-552.45 227.77,-539.75 227.77,-528.63"/>
<polygon fill="black" stroke="black" points="231.27,-528.84 227.77,-518.84 224.27,-528.84 231.27,-528.84"/>
</g>
<!-- reshape.66 -->
<g id="node3" class="node">
<title>reshape.66</title>
<ellipse fill="none" stroke="black" cx="227.77" cy="-310.94" rx="69.12" ry="28.99"/>
<text text-anchor="middle" x="227.77" y="-314.14" font-family="Times,serif" font-size="14.00">reshape.66 </text>
<text text-anchor="middle" x="227.77" y="-297.64" font-family="Times,serif" font-size="14.00"> f32[4096,256]</text>
</g>
<!-- dot.67 -->
<g id="node5" class="node">
<title>dot.67</title>
<ellipse fill="none" stroke="black" cx="303.77" cy="-216.96" rx="64.35" ry="28.99"/>
<text text-anchor="middle" x="303.77" y="-220.16" font-family="Times,serif" font-size="14.00">dot.67 </text>
<text text-anchor="middle" x="303.77" y="-203.66" font-family="Times,serif" font-size="14.00"> f32[256,384]</text>
</g>
<!-- reshape.66&#45;&gt;dot.67 -->
<g id="edge7" class="edge">
<title>reshape.66&#45;&gt;dot.67</title>
<path fill="none" stroke="black" d="M249.75,-283.33C257.55,-273.9 266.45,-263.12 274.75,-253.08"/>
<polygon fill="black" stroke="black" points="277.2,-255.61 280.87,-245.67 271.81,-251.15 277.2,-255.61"/>
</g>
<!-- p9.10 -->
<g id="node4" class="node">
<title>p9.10</title>
<ellipse fill="none" stroke="black" cx="380.77" cy="-404.92" rx="69.12" ry="28.99"/>
<text text-anchor="middle" x="380.77" y="-408.12" font-family="Times,serif" font-size="14.00">p9.10 </text>
<text text-anchor="middle" x="380.77" y="-391.62" font-family="Times,serif" font-size="14.00"> f32[4096,384]</text>
</g>
<!-- custom&#45;call.58 -->
<g id="node11" class="node">
<title>custom&#45;call.58</title>
<ellipse fill="none" stroke="black" cx="380.77" cy="-310.94" rx="66.19" ry="18"/>
<text text-anchor="middle" x="380.77" y="-305.89" font-family="Times,serif" font-size="14.00">custom&#45;call.58</text>
</g>
<!-- p9.10&#45;&gt;custom&#45;call.58 -->
<g id="edge6" class="edge">
<title>p9.10&#45;&gt;custom&#45;call.58</title>
<path fill="none" stroke="black" d="M380.77,-375.57C380.77,-364.49 380.77,-351.79 380.77,-340.67"/>
<polygon fill="black" stroke="black" points="384.27,-340.88 380.77,-330.88 377.27,-340.88 384.27,-340.88"/>
</g>
<!-- slice.68 -->
<g id="node6" class="node">
<title>slice.68</title>
<ellipse fill="none" stroke="black" cx="303.77" cy="-122.97" rx="64.35" ry="28.99"/>
<text text-anchor="middle" x="303.77" y="-126.17" font-family="Times,serif" font-size="14.00">slice.68 </text>
<text text-anchor="middle" x="303.77" y="-109.67" font-family="Times,serif" font-size="14.00"> f32[256,128]</text>
</g>
<!-- dot.67&#45;&gt;slice.68 -->
<g id="edge9" class="edge">
<title>dot.67&#45;&gt;slice.68</title>
<path fill="none" stroke="black" d="M303.77,-187.61C303.77,-180.09 303.77,-171.83 303.77,-163.82"/>
<polygon fill="black" stroke="black" points="307.27,-163.9 303.77,-153.9 300.27,-163.9 307.27,-163.9"/>
</g>
<!-- reshape.71 -->
<g id="node7" class="node">
<title>reshape.71</title>
<ellipse fill="none" stroke="black" cx="303.77" cy="-28.99" rx="74.42" ry="28.99"/>
<text text-anchor="middle" x="303.77" y="-32.19" font-family="Times,serif" font-size="14.00">reshape.71 </text>
<text text-anchor="middle" x="303.77" y="-15.69" font-family="Times,serif" font-size="14.00"> f32[64,4,1,128]</text>
</g>
<!-- slice.68&#45;&gt;reshape.71 -->
<g id="edge10" class="edge">
<title>slice.68&#45;&gt;reshape.71</title>
<path fill="none" stroke="black" d="M303.77,-93.63C303.77,-86.11 303.77,-77.85 303.77,-69.84"/>
<polygon fill="black" stroke="black" points="307.27,-69.92 303.77,-59.92 300.27,-69.92 307.27,-69.92"/>
</g>
<!-- custom&#45;call.57&#45;&gt;custom&#45;call.65 -->
<g id="edge3" class="edge">
<title>custom&#45;call.57&#45;&gt;custom&#45;call.65</title>
<path fill="none" stroke="black" d="M227.77,-480.6C227.77,-467.63 227.77,-449.58 227.77,-434.47"/>
<polygon fill="black" stroke="black" points="231.27,-434.66 227.77,-424.66 224.27,-434.66 231.27,-434.66"/>
</g>
<!-- custom&#45;call.65&#45;&gt;reshape.66 -->
<g id="edge5" class="edge">
<title>custom&#45;call.65&#45;&gt;reshape.66</title>
<path fill="none" stroke="black" d="M227.77,-386.62C227.77,-376.76 227.77,-363.97 227.77,-351.77"/>
<polygon fill="black" stroke="black" points="231.27,-351.89 227.77,-341.89 224.27,-351.89 231.27,-351.89"/>
</g>
<!-- constant.64 -->
<g id="node10" class="node">
<title>constant.64</title>
<ellipse fill="none" stroke="black" cx="365.77" cy="-498.91" rx="53.4" ry="18"/>
<text text-anchor="middle" x="365.77" y="-493.86" font-family="Times,serif" font-size="14.00">constant.64</text>
</g>
<!-- constant.64&#45;&gt;custom&#45;call.65 -->
<g id="edge4" class="edge">
<title>constant.64&#45;&gt;custom&#45;call.65</title>
<path fill="none" stroke="black" d="M342.36,-482.3C320.09,-467.46 286.36,-444.98 261.26,-428.24"/>
<polygon fill="black" stroke="black" points="263.28,-425.39 253.02,-422.75 259.4,-431.21 263.28,-425.39"/>
</g>
<!-- custom&#45;call.58&#45;&gt;dot.67 -->
<g id="edge8" class="edge">
<title>custom&#45;call.58&#45;&gt;dot.67</title>
<path fill="none" stroke="black" d="M366.65,-293.07C357.32,-281.92 344.74,-266.9 333.29,-253.22"/>
<polygon fill="black" stroke="black" points="336.04,-251.06 326.94,-245.63 330.68,-255.55 336.04,-251.06"/>
</g>
</g>
</svg>
