<?xml version="1.0" encoding="UTF-8" standalone="no"?>
<!DOCTYPE svg PUBLIC "-//W3C//DTD SVG 1.1//EN"
 "http://www.w3.org/Graphics/SVG/1.1/DTD/svg11.dtd">
<!-- Generated by graphviz version 12.0.0 (20240704.0754)
 -->
<!-- Title: HloModule Pages: 1 -->
<svg width="721pt" height="1726pt"
 viewBox="0.00 0.00 720.77 1725.81" xmlns="http://www.w3.org/2000/svg" xmlns:xlink="http://www.w3.org/1999/xlink">
<g id="graph0" class="graph" transform="scale(1 1) rotate(0) translate(4 1721.81)">
<title>HloModule</title>
<polygon fill="white" stroke="none" points="-4,4 -4,-1721.81 716.77,-1721.81 716.77,4 -4,4"/>
<!-- p5.17 -->
<g id="node1" class="node">
<title>p5.17</title>
<ellipse fill="none" stroke="black" cx="225.59" cy="-1688.82" rx="169.35" ry="28.99"/>
<text text-anchor="middle" x="225.59" y="-1692.02" font-family="Times,serif" font-size="14.00">p5.17 </text>
<text text-anchor="middle" x="225.59" y="-1675.52" font-family="Times,serif" font-size="14.00"> f32[] parameter(5), frontend_attributes=</text>
</g>
<!-- all&#45;reduce.52 -->
<g id="node14" class="node">
<title>all&#45;reduce.52</title>
<ellipse fill="none" stroke="black" cx="466.59" cy="-1605.83" rx="59.54" ry="18"/>
<text text-anchor="middle" x="466.59" y="-1600.78" font-family="Times,serif" font-size="14.00">all&#45;reduce.52</text>
</g>
<!-- p5.17&#45;&gt;all&#45;reduce.52 -->
<g id="edge2" class="edge">
<title>p5.17&#45;&gt;all&#45;reduce.52</title>
<path fill="none" stroke="black" d="M301.18,-1662.41C339.01,-1649.7 383.72,-1634.68 417.12,-1623.45"/>
<polygon fill="black" stroke="black" points="418.19,-1626.79 426.55,-1620.28 415.96,-1620.15 418.19,-1626.79"/>
</g>
<!-- slice.81 -->
<g id="node2" class="node">
<title>slice.81</title>
<ellipse fill="none" stroke="black" cx="507.59" cy="-1284.85" rx="45.25" ry="28.99"/>
<text text-anchor="middle" x="507.59" y="-1288.05" font-family="Times,serif" font-size="14.00">slice.81 </text>
<text text-anchor="middle" x="507.59" y="-1271.55" font-family="Times,serif" font-size="14.00"> f32[1,1]</text>
</g>
<!-- multiply.11 -->
<g id="node3" class="node">
<title>multiply.11</title>
<ellipse fill="none" stroke="black" cx="395.59" cy="-1190.87" rx="58.51" ry="28.99"/>
<text text-anchor="middle" x="395.59" y="-1194.07" font-family="Times,serif" font-size="14.00">multiply.11 </text>
<text text-anchor="middle" x="395.59" y="-1177.57" font-family="Times,serif" font-size="14.00"> f32[1,1]</text>
</g>
<!-- slice.81&#45;&gt;multiply.11 -->
<g id="edge10" class="edge">
<title>slice.81&#45;&gt;multiply.11</title>
<path fill="none" stroke="black" d="M480.19,-1261.35C466.22,-1249.88 449.01,-1235.75 433.77,-1223.23"/>
<polygon fill="black" stroke="black" points="436.18,-1220.68 426.23,-1217.03 431.73,-1226.08 436.18,-1220.68"/>
</g>
<!-- add.85 -->
<g id="node6" class="node">
<title>add.85</title>
<ellipse fill="none" stroke="black" cx="395.59" cy="-1096.89" rx="45.25" ry="28.99"/>
<text text-anchor="middle" x="395.59" y="-1100.09" font-family="Times,serif" font-size="14.00">add.85 </text>
<text text-anchor="middle" x="395.59" y="-1083.59" font-family="Times,serif" font-size="14.00"> f32[1,1]</text>
</g>
<!-- multiply.11&#45;&gt;add.85 -->
<g id="edge14" class="edge">
<title>multiply.11&#45;&gt;add.85</title>
<path fill="none" stroke="black" d="M395.59,-1161.52C395.59,-1154 395.59,-1145.74 395.59,-1137.74"/>
<polygon fill="black" stroke="black" points="399.09,-1137.81 395.59,-1127.81 392.09,-1137.81 399.09,-1137.81"/>
</g>
<!-- p7.64 -->
<g id="node4" class="node">
<title>p7.64</title>
<ellipse fill="none" stroke="black" cx="132.59" cy="-1378.84" rx="37.83" ry="28.99"/>
<text text-anchor="middle" x="132.59" y="-1382.04" font-family="Times,serif" font-size="14.00">p7.64 </text>
<text text-anchor="middle" x="132.59" y="-1365.54" font-family="Times,serif" font-size="14.00"> f32[1]</text>
</g>
<!-- custom&#45;call.7 -->
<g id="node22" class="node">
<title>custom&#45;call.7</title>
<ellipse fill="none" stroke="black" cx="202.59" cy="-1284.85" rx="61.59" ry="18"/>
<text text-anchor="middle" x="202.59" y="-1279.8" font-family="Times,serif" font-size="14.00">custom&#45;call.7</text>
</g>
<!-- p7.64&#45;&gt;custom&#45;call.7 -->
<g id="edge12" class="edge">
<title>p7.64&#45;&gt;custom&#45;call.7</title>
<path fill="none" stroke="black" d="M151.35,-1353.19C161.12,-1340.34 173.07,-1324.64 182.97,-1311.63"/>
<polygon fill="black" stroke="black" points="185.57,-1314 188.84,-1303.92 180,-1309.76 185.57,-1314"/>
</g>
<!-- custom&#45;call.9 -->
<g id="node30" class="node">
<title>custom&#45;call.9</title>
<ellipse fill="none" stroke="black" cx="61.59" cy="-1284.85" rx="61.59" ry="18"/>
<text text-anchor="middle" x="61.59" y="-1279.8" font-family="Times,serif" font-size="14.00">custom&#45;call.9</text>
</g>
<!-- p7.64&#45;&gt;custom&#45;call.9 -->
<g id="edge27" class="edge">
<title>p7.64&#45;&gt;custom&#45;call.9</title>
<path fill="none" stroke="black" d="M113.93,-1353.67C104.01,-1340.82 91.81,-1325.01 81.68,-1311.89"/>
<polygon fill="black" stroke="black" points="84.55,-1309.87 75.66,-1304.09 79,-1314.14 84.55,-1309.87"/>
</g>
<!-- reshape.18 -->
<g id="node5" class="node">
<title>reshape.18</title>
<ellipse fill="none" stroke="black" cx="206.59" cy="-1190.87" rx="55.33" ry="28.99"/>
<text text-anchor="middle" x="206.59" y="-1194.07" font-family="Times,serif" font-size="14.00">reshape.18 </text>
<text text-anchor="middle" x="206.59" y="-1177.57" font-family="Times,serif" font-size="14.00"> f32[1,1]</text>
</g>
<!-- reshape.18&#45;&gt;add.85 -->
<g id="edge15" class="edge">
<title>reshape.18&#45;&gt;add.85</title>
<path fill="none" stroke="black" d="M246.67,-1170.36C276.85,-1155.68 318.26,-1135.52 349.75,-1120.19"/>
<polygon fill="black" stroke="black" points="351.2,-1123.38 358.66,-1115.86 348.14,-1117.09 351.2,-1123.38"/>
</g>
<!-- all&#45;gather.89 -->
<g id="node24" class="node">
<title>all&#45;gather.89</title>
<ellipse fill="none" stroke="black" cx="420.59" cy="-1013.9" rx="57.49" ry="18"/>
<text text-anchor="middle" x="420.59" y="-1008.85" font-family="Times,serif" font-size="14.00">all&#45;gather.89</text>
</g>
<!-- add.85&#45;&gt;all&#45;gather.89 -->
<g id="edge17" class="edge">
<title>add.85&#45;&gt;all&#45;gather.89</title>
<path fill="none" stroke="black" d="M404.19,-1068.02C406.69,-1059.93 409.41,-1051.1 411.91,-1043"/>
<polygon fill="black" stroke="black" points="415.2,-1044.22 414.8,-1033.63 408.51,-1042.16 415.2,-1044.22"/>
</g>
<!-- slice.116 -->
<g id="node7" class="node">
<title>slice.116</title>
<ellipse fill="none" stroke="black" cx="337.59" cy="-692.92" rx="48.44" ry="28.99"/>
<text text-anchor="middle" x="337.59" y="-696.12" font-family="Times,serif" font-size="14.00">slice.116 </text>
<text text-anchor="middle" x="337.59" y="-679.62" font-family="Times,serif" font-size="14.00"> f32[1,1]</text>
</g>
<!-- multiply.12 -->
<g id="node8" class="node">
<title>multiply.12</title>
<ellipse fill="none" stroke="black" cx="301.59" cy="-598.94" rx="58.51" ry="28.99"/>
<text text-anchor="middle" x="301.59" y="-602.14" font-family="Times,serif" font-size="14.00">multiply.12 </text>
<text text-anchor="middle" x="301.59" y="-585.64" font-family="Times,serif" font-size="14.00"> f32[1,1]</text>
</g>
<!-- slice.116&#45;&gt;multiply.12 -->
<g id="edge25" class="edge">
<title>slice.116&#45;&gt;multiply.12</title>
<path fill="none" stroke="black" d="M326.79,-664.32C323.61,-656.21 320.08,-647.19 316.69,-638.52"/>
<polygon fill="black" stroke="black" points="319.96,-637.28 313.06,-629.25 313.44,-639.83 319.96,-637.28"/>
</g>
<!-- add.120 -->
<g id="node10" class="node">
<title>add.120</title>
<ellipse fill="none" stroke="black" cx="301.59" cy="-504.96" rx="45.25" ry="28.99"/>
<text text-anchor="middle" x="301.59" y="-508.16" font-family="Times,serif" font-size="14.00">add.120 </text>
<text text-anchor="middle" x="301.59" y="-491.66" font-family="Times,serif" font-size="14.00"> f32[1,1]</text>
</g>
<!-- multiply.12&#45;&gt;add.120 -->
<g id="edge29" class="edge">
<title>multiply.12&#45;&gt;add.120</title>
<path fill="none" stroke="black" d="M301.59,-569.59C301.59,-562.07 301.59,-553.81 301.59,-545.8"/>
<polygon fill="black" stroke="black" points="305.09,-545.88 301.59,-535.88 298.09,-545.88 305.09,-545.88"/>
</g>
<!-- reshape.23 -->
<g id="node9" class="node">
<title>reshape.23</title>
<ellipse fill="none" stroke="black" cx="169.59" cy="-858.91" rx="55.33" ry="28.99"/>
<text text-anchor="middle" x="169.59" y="-862.11" font-family="Times,serif" font-size="14.00">reshape.23 </text>
<text text-anchor="middle" x="169.59" y="-845.61" font-family="Times,serif" font-size="14.00"> f32[1,1]</text>
</g>
<!-- reshape.23&#45;&gt;add.120 -->
<g id="edge30" class="edge">
<title>reshape.23&#45;&gt;add.120</title>
<path fill="none" stroke="black" d="M170.43,-829.78C173.16,-775.9 184.71,-655.86 233.59,-569.95 241.13,-556.7 252.3,-544.55 263.42,-534.48"/>
<polygon fill="black" stroke="black" points="265.43,-537.37 270.71,-528.19 260.85,-532.07 265.43,-537.37"/>
</g>
<!-- all&#45;gather.124 -->
<g id="node32" class="node">
<title>all&#45;gather.124</title>
<ellipse fill="none" stroke="black" cx="344.59" cy="-421.97" rx="62.1" ry="18"/>
<text text-anchor="middle" x="344.59" y="-416.92" font-family="Times,serif" font-size="14.00">all&#45;gather.124</text>
</g>
<!-- add.120&#45;&gt;all&#45;gather.124 -->
<g id="edge32" class="edge">
<title>add.120&#45;&gt;all&#45;gather.124</title>
<path fill="none" stroke="black" d="M315.91,-476.99C320.49,-468.35 325.57,-458.79 330.16,-450.14"/>
<polygon fill="black" stroke="black" points="333.15,-451.97 334.75,-441.5 326.97,-448.69 333.15,-451.97"/>
</g>
<!-- slice.136 -->
<g id="node11" class="node">
<title>slice.136</title>
<ellipse fill="none" stroke="black" cx="424.59" cy="-122.97" rx="48.44" ry="28.99"/>
<text text-anchor="middle" x="424.59" y="-126.17" font-family="Times,serif" font-size="14.00">slice.136 </text>
<text text-anchor="middle" x="424.59" y="-109.67" font-family="Times,serif" font-size="14.00"> f32[1,1]</text>
</g>
<!-- reshape.169 -->
<g id="node12" class="node">
<title>reshape.169</title>
<ellipse fill="none" stroke="black" cx="424.59" cy="-28.99" rx="60.1" ry="28.99"/>
<text text-anchor="middle" x="424.59" y="-32.19" font-family="Times,serif" font-size="14.00">reshape.169 </text>
<text text-anchor="middle" x="424.59" y="-15.69" font-family="Times,serif" font-size="14.00"> f32[1]</text>
</g>
<!-- slice.136&#45;&gt;reshape.169 -->
<g id="edge39" class="edge">
<title>slice.136&#45;&gt;reshape.169</title>
<path fill="none" stroke="black" d="M424.59,-93.63C424.59,-86.11 424.59,-77.85 424.59,-69.84"/>
<polygon fill="black" stroke="black" points="428.09,-69.92 424.59,-59.92 421.09,-69.92 428.09,-69.92"/>
</g>
<!-- multiply.42 -->
<g id="node13" class="node">
<title>multiply.42</title>
<ellipse fill="none" stroke="black" cx="466.59" cy="-1688.82" rx="53.91" ry="18"/>
<text text-anchor="middle" x="466.59" y="-1683.77" font-family="Times,serif" font-size="14.00">multiply.42</text>
</g>
<!-- multiply.42&#45;&gt;all&#45;reduce.52 -->
<g id="edge1" class="edge">
<title>multiply.42&#45;&gt;all&#45;reduce.52</title>
<path fill="none" stroke="black" d="M466.59,-1670.64C466.59,-1660.51 466.59,-1647.42 466.59,-1635.74"/>
<polygon fill="black" stroke="black" points="470.09,-1635.77 466.59,-1625.77 463.09,-1635.77 470.09,-1635.77"/>
</g>
<!-- get&#45;tuple&#45;element.60 -->
<g id="node16" class="node">
<title>get&#45;tuple&#45;element.60</title>
<ellipse fill="none" stroke="black" cx="466.59" cy="-1533.83" rx="88.2" ry="18"/>
<text text-anchor="middle" x="466.59" y="-1528.78" font-family="Times,serif" font-size="14.00">get&#45;tuple&#45;element.60</text>
</g>
<!-- all&#45;reduce.52&#45;&gt;get&#45;tuple&#45;element.60 -->
<g id="edge4" class="edge">
<title>all&#45;reduce.52&#45;&gt;get&#45;tuple&#45;element.60</title>
<path fill="none" stroke="black" d="M466.59,-1587.52C466.59,-1580.23 466.59,-1571.55 466.59,-1563.36"/>
<polygon fill="black" stroke="black" points="470.09,-1563.45 466.59,-1553.45 463.09,-1563.45 470.09,-1563.45"/>
</g>
<!-- AddComputation.48 -->
<g id="node15" class="node">
<title>AddComputation.48</title>
<ellipse fill="none" stroke="black" cx="625.59" cy="-1688.82" rx="87.18" ry="18"/>
<text text-anchor="middle" x="625.59" y="-1683.77" font-family="Times,serif" font-size="14.00">AddComputation.48</text>
</g>
<!-- AddComputation.48&#45;&gt;all&#45;reduce.52 -->
<g id="edge3" class="edge">
<title>AddComputation.48&#45;&gt;all&#45;reduce.52</title>
<path fill="none" stroke="black" d="M593.79,-1671.62C568.56,-1658.77 533.15,-1640.73 506.1,-1626.95"/>
<polygon fill="black" stroke="black" points="508.03,-1624.01 497.53,-1622.59 504.85,-1630.25 508.03,-1624.01"/>
</g>
<!-- all&#45;gather.61 -->
<g id="node18" class="node">
<title>all&#45;gather.61</title>
<ellipse fill="none" stroke="black" cx="543.59" cy="-1461.83" rx="57.49" ry="18"/>
<text text-anchor="middle" x="543.59" y="-1456.78" font-family="Times,serif" font-size="14.00">all&#45;gather.61</text>
</g>
<!-- get&#45;tuple&#45;element.60&#45;&gt;all&#45;gather.61 -->
<g id="edge6" class="edge">
<title>get&#45;tuple&#45;element.60&#45;&gt;all&#45;gather.61</title>
<path fill="none" stroke="black" d="M485.23,-1515.88C494.75,-1507.22 506.52,-1496.53 516.98,-1487.02"/>
<polygon fill="black" stroke="black" points="519.22,-1489.71 524.27,-1480.39 514.51,-1484.53 519.22,-1489.71"/>
</g>
<!-- constant.5 -->
<g id="node17" class="node">
<title>constant.5</title>
<ellipse fill="none" stroke="black" cx="621.59" cy="-1533.83" rx="48.79" ry="18"/>
<text text-anchor="middle" x="621.59" y="-1528.78" font-family="Times,serif" font-size="14.00">constant.5</text>
</g>
<!-- constant.5&#45;&gt;all&#45;gather.61 -->
<g id="edge5" class="edge">
<title>constant.5&#45;&gt;all&#45;gather.61</title>
<path fill="none" stroke="black" d="M603.89,-1516.94C593.96,-1508.03 581.37,-1496.73 570.27,-1486.77"/>
<polygon fill="black" stroke="black" points="572.66,-1484.22 562.88,-1480.15 567.99,-1489.43 572.66,-1484.22"/>
</g>
<!-- get&#45;tuple&#45;element.62 -->
<g id="node19" class="node">
<title>get&#45;tuple&#45;element.62</title>
<ellipse fill="none" stroke="black" cx="485.59" cy="-1378.84" rx="88.2" ry="18"/>
<text text-anchor="middle" x="485.59" y="-1373.79" font-family="Times,serif" font-size="14.00">get&#45;tuple&#45;element.62</text>
</g>
<!-- all&#45;gather.61&#45;&gt;get&#45;tuple&#45;element.62 -->
<g id="edge7" class="edge">
<title>all&#45;gather.61&#45;&gt;get&#45;tuple&#45;element.62</title>
<path fill="none" stroke="black" d="M531.57,-1444.05C523.69,-1433.04 513.23,-1418.43 504.27,-1405.93"/>
<polygon fill="black" stroke="black" points="507.34,-1404.2 498.67,-1398.11 501.65,-1408.27 507.34,-1404.2"/>
</g>
<!-- get&#45;tuple&#45;element.88 -->
<g id="node23" class="node">
<title>get&#45;tuple&#45;element.88</title>
<ellipse fill="none" stroke="black" cx="567.59" cy="-1096.89" rx="88.2" ry="18"/>
<text text-anchor="middle" x="567.59" y="-1091.84" font-family="Times,serif" font-size="14.00">get&#45;tuple&#45;element.88</text>
</g>
<!-- all&#45;gather.61&#45;&gt;get&#45;tuple&#45;element.88 -->
<g id="edge16" class="edge">
<title>all&#45;gather.61&#45;&gt;get&#45;tuple&#45;element.88</title>
<path fill="none" stroke="black" d="M560.07,-1444.29C568.58,-1434.56 578.1,-1421.5 582.59,-1407.83 615.15,-1308.64 589.82,-1182.02 575.58,-1126.34"/>
<polygon fill="black" stroke="black" points="578.98,-1125.5 573.04,-1116.73 572.22,-1127.29 578.98,-1125.5"/>
</g>
<!-- get&#45;tuple&#45;element.62&#45;&gt;slice.81 -->
<g id="edge8" class="edge">
<title>get&#45;tuple&#45;element.62&#45;&gt;slice.81</title>
<path fill="none" stroke="black" d="M489.73,-1360.53C492.13,-1350.49 495.26,-1337.42 498.22,-1325.02"/>
<polygon fill="black" stroke="black" points="501.6,-1325.94 500.52,-1315.4 494.79,-1324.31 501.6,-1325.94"/>
</g>
<!-- p8.72 -->
<g id="node20" class="node">
<title>p8.72</title>
<ellipse fill="none" stroke="black" cx="319.59" cy="-1378.84" rx="31.9" ry="18"/>
<text text-anchor="middle" x="319.59" y="-1373.79" font-family="Times,serif" font-size="14.00">p8.72</text>
</g>
<!-- custom&#45;call.6 -->
<g id="node21" class="node">
<title>custom&#45;call.6</title>
<ellipse fill="none" stroke="black" cx="382.59" cy="-1284.85" rx="61.59" ry="18"/>
<text text-anchor="middle" x="382.59" y="-1279.8" font-family="Times,serif" font-size="14.00">custom&#45;call.6</text>
</g>
<!-- p8.72&#45;&gt;custom&#45;call.6 -->
<g id="edge9" class="edge">
<title>p8.72&#45;&gt;custom&#45;call.6</title>
<path fill="none" stroke="black" d="M330.56,-1361.81C339.9,-1348.17 353.51,-1328.3 364.47,-1312.31"/>
<polygon fill="black" stroke="black" points="367.27,-1314.42 370.03,-1304.19 361.49,-1310.46 367.27,-1314.42"/>
</g>
<!-- custom&#45;call.8 -->
<g id="node29" class="node">
<title>custom&#45;call.8</title>
<ellipse fill="none" stroke="black" cx="279.59" cy="-1013.9" rx="61.59" ry="18"/>
<text text-anchor="middle" x="279.59" y="-1008.85" font-family="Times,serif" font-size="14.00">custom&#45;call.8</text>
</g>
<!-- p8.72&#45;&gt;custom&#45;call.8 -->
<g id="edge24" class="edge">
<title>p8.72&#45;&gt;custom&#45;call.8</title>
<path fill="none" stroke="black" d="M317.33,-1360.46C315.68,-1347.6 313.42,-1329.64 311.59,-1313.84 300.06,-1214.51 287.87,-1096.43 282.46,-1043.29"/>
<polygon fill="black" stroke="black" points="285.97,-1043.2 281.47,-1033.6 279,-1043.9 285.97,-1043.2"/>
</g>
<!-- custom&#45;call.6&#45;&gt;multiply.11 -->
<g id="edge11" class="edge">
<title>custom&#45;call.6&#45;&gt;multiply.11</title>
<path fill="none" stroke="black" d="M385.03,-1266.55C386.45,-1256.51 388.3,-1243.43 390.05,-1231.03"/>
<polygon fill="black" stroke="black" points="393.47,-1231.83 391.41,-1221.44 386.54,-1230.85 393.47,-1231.83"/>
</g>
<!-- custom&#45;call.7&#45;&gt;reshape.18 -->
<g id="edge13" class="edge">
<title>custom&#45;call.7&#45;&gt;reshape.18</title>
<path fill="none" stroke="black" d="M203.34,-1266.55C203.77,-1256.69 204.32,-1243.9 204.86,-1231.7"/>
<polygon fill="black" stroke="black" points="208.35,-1231.96 205.29,-1221.82 201.35,-1231.65 208.35,-1231.96"/>
</g>
<!-- get&#45;tuple&#45;element.88&#45;&gt;all&#45;gather.89 -->
<g id="edge18" class="edge">
<title>get&#45;tuple&#45;element.88&#45;&gt;all&#45;gather.89</title>
<path fill="none" stroke="black" d="M537.84,-1079.5C514.69,-1066.74 482.43,-1048.97 457.61,-1035.29"/>
<polygon fill="black" stroke="black" points="459.59,-1032.39 449.14,-1030.63 456.21,-1038.52 459.59,-1032.39"/>
</g>
<!-- get&#45;tuple&#45;element.97 -->
<g id="node25" class="node">
<title>get&#45;tuple&#45;element.97</title>
<ellipse fill="none" stroke="black" cx="420.59" cy="-941.9" rx="88.2" ry="18"/>
<text text-anchor="middle" x="420.59" y="-936.85" font-family="Times,serif" font-size="14.00">get&#45;tuple&#45;element.97</text>
</g>
<!-- all&#45;gather.89&#45;&gt;get&#45;tuple&#45;element.97 -->
<g id="edge19" class="edge">
<title>all&#45;gather.89&#45;&gt;get&#45;tuple&#45;element.97</title>
<path fill="none" stroke="black" d="M420.59,-995.59C420.59,-988.3 420.59,-979.62 420.59,-971.43"/>
<polygon fill="black" stroke="black" points="424.09,-971.51 420.59,-961.51 417.09,-971.51 424.09,-971.51"/>
</g>
<!-- all&#45;gather.98 -->
<g id="node27" class="node">
<title>all&#45;gather.98</title>
<ellipse fill="none" stroke="black" cx="459.59" cy="-858.91" rx="57.49" ry="18"/>
<text text-anchor="middle" x="459.59" y="-853.86" font-family="Times,serif" font-size="14.00">all&#45;gather.98</text>
</g>
<!-- get&#45;tuple&#45;element.97&#45;&gt;all&#45;gather.98 -->
<g id="edge21" class="edge">
<title>get&#45;tuple&#45;element.97&#45;&gt;all&#45;gather.98</title>
<path fill="none" stroke="black" d="M428.86,-923.72C433.98,-913.09 440.66,-899.21 446.49,-887.11"/>
<polygon fill="black" stroke="black" points="449.49,-888.95 450.67,-878.42 443.18,-885.91 449.49,-888.95"/>
</g>
<!-- constant.4 -->
<g id="node26" class="node">
<title>constant.4</title>
<ellipse fill="none" stroke="black" cx="575.59" cy="-941.9" rx="48.79" ry="18"/>
<text text-anchor="middle" x="575.59" y="-936.85" font-family="Times,serif" font-size="14.00">constant.4</text>
</g>
<!-- constant.4&#45;&gt;all&#45;gather.98 -->
<g id="edge20" class="edge">
<title>constant.4&#45;&gt;all&#45;gather.98</title>
<path fill="none" stroke="black" d="M553.5,-925.47C535.98,-913.24 511.27,-895.99 491.59,-882.25"/>
<polygon fill="black" stroke="black" points="493.83,-879.55 483.63,-876.69 489.83,-885.29 493.83,-879.55"/>
</g>
<!-- get&#45;tuple&#45;element.99 -->
<g id="node28" class="node">
<title>get&#45;tuple&#45;element.99</title>
<ellipse fill="none" stroke="black" cx="378.59" cy="-775.91" rx="88.2" ry="18"/>
<text text-anchor="middle" x="378.59" y="-770.86" font-family="Times,serif" font-size="14.00">get&#45;tuple&#45;element.99</text>
</g>
<!-- all&#45;gather.98&#45;&gt;get&#45;tuple&#45;element.99 -->
<g id="edge22" class="edge">
<title>all&#45;gather.98&#45;&gt;get&#45;tuple&#45;element.99</title>
<path fill="none" stroke="black" d="M443.2,-841.52C431.82,-830.14 416.45,-814.78 403.56,-801.88"/>
<polygon fill="black" stroke="black" points="406.13,-799.5 396.58,-794.91 401.18,-804.45 406.13,-799.5"/>
</g>
<!-- get&#45;tuple&#45;element.123 -->
<g id="node31" class="node">
<title>get&#45;tuple&#45;element.123</title>
<ellipse fill="none" stroke="black" cx="496.59" cy="-692.92" rx="92.81" ry="18"/>
<text text-anchor="middle" x="496.59" y="-687.87" font-family="Times,serif" font-size="14.00">get&#45;tuple&#45;element.123</text>
</g>
<!-- all&#45;gather.98&#45;&gt;get&#45;tuple&#45;element.123 -->
<g id="edge31" class="edge">
<title>all&#45;gather.98&#45;&gt;get&#45;tuple&#45;element.123</title>
<path fill="none" stroke="black" d="M464.11,-840.57C467.42,-827.72 471.94,-809.76 475.59,-793.91 481.11,-769.89 486.82,-742.49 490.9,-722.45"/>
<polygon fill="black" stroke="black" points="494.3,-723.29 492.85,-712.79 487.44,-721.9 494.3,-723.29"/>
</g>
<!-- get&#45;tuple&#45;element.99&#45;&gt;slice.116 -->
<g id="edge23" class="edge">
<title>get&#45;tuple&#45;element.99&#45;&gt;slice.116</title>
<path fill="none" stroke="black" d="M369.89,-757.74C365.96,-749.98 361.16,-740.49 356.47,-731.22"/>
<polygon fill="black" stroke="black" points="359.59,-729.65 351.96,-722.31 353.35,-732.81 359.59,-729.65"/>
</g>
<!-- custom&#45;call.8&#45;&gt;multiply.12 -->
<g id="edge26" class="edge">
<title>custom&#45;call.8&#45;&gt;multiply.12</title>
<path fill="none" stroke="black" d="M276.2,-995.54C270.99,-967.25 261.59,-909.38 261.59,-859.91 261.59,-859.91 261.59,-859.91 261.59,-774.91 261.59,-726.97 276.03,-673.46 287.56,-638.39"/>
<polygon fill="black" stroke="black" points="290.81,-639.7 290.7,-629.11 284.18,-637.46 290.81,-639.7"/>
</g>
<!-- custom&#45;call.9&#45;&gt;reshape.23 -->
<g id="edge28" class="edge">
<title>custom&#45;call.9&#45;&gt;reshape.23</title>
<path fill="none" stroke="black" d="M66.28,-1266.57C74.71,-1233.89 91.59,-1160.68 91.59,-1097.89 91.59,-1097.89 91.59,-1097.89 91.59,-1012.9 91.59,-968.64 117.81,-924.27 139.85,-894.8"/>
<polygon fill="black" stroke="black" points="142.55,-897.02 145.89,-886.97 137.01,-892.75 142.55,-897.02"/>
</g>
<!-- get&#45;tuple&#45;element.123&#45;&gt;all&#45;gather.124 -->
<g id="edge33" class="edge">
<title>get&#45;tuple&#45;element.123&#45;&gt;all&#45;gather.124</title>
<path fill="none" stroke="black" d="M486.85,-674.69C461.06,-629.05 390.84,-504.8 359.75,-449.79"/>
<polygon fill="black" stroke="black" points="362.96,-448.36 354.99,-441.37 356.86,-451.8 362.96,-448.36"/>
</g>
<!-- get&#45;tuple&#45;element.132 -->
<g id="node33" class="node">
<title>get&#45;tuple&#45;element.132</title>
<ellipse fill="none" stroke="black" cx="344.59" cy="-349.97" rx="92.81" ry="18"/>
<text text-anchor="middle" x="344.59" y="-344.92" font-family="Times,serif" font-size="14.00">get&#45;tuple&#45;element.132</text>
</g>
<!-- all&#45;gather.124&#45;&gt;get&#45;tuple&#45;element.132 -->
<g id="edge34" class="edge">
<title>all&#45;gather.124&#45;&gt;get&#45;tuple&#45;element.132</title>
<path fill="none" stroke="black" d="M344.59,-403.66C344.59,-396.37 344.59,-387.69 344.59,-379.5"/>
<polygon fill="black" stroke="black" points="348.09,-379.58 344.59,-369.58 341.09,-379.58 348.09,-379.58"/>
</g>
<!-- all&#45;gather.133 -->
<g id="node35" class="node">
<title>all&#45;gather.133</title>
<ellipse fill="none" stroke="black" cx="424.59" cy="-277.97" rx="62.1" ry="18"/>
<text text-anchor="middle" x="424.59" y="-272.92" font-family="Times,serif" font-size="14.00">all&#45;gather.133</text>
</g>
<!-- get&#45;tuple&#45;element.132&#45;&gt;all&#45;gather.133 -->
<g id="edge36" class="edge">
<title>get&#45;tuple&#45;element.132&#45;&gt;all&#45;gather.133</title>
<path fill="none" stroke="black" d="M363.95,-332.02C373.95,-323.27 386.32,-312.45 397.27,-302.87"/>
<polygon fill="black" stroke="black" points="399.32,-305.73 404.54,-296.51 394.71,-300.46 399.32,-305.73"/>
</g>
<!-- constant.3 -->
<g id="node34" class="node">
<title>constant.3</title>
<ellipse fill="none" stroke="black" cx="504.59" cy="-349.97" rx="48.79" ry="18"/>
<text text-anchor="middle" x="504.59" y="-344.92" font-family="Times,serif" font-size="14.00">constant.3</text>
</g>
<!-- constant.3&#45;&gt;all&#45;gather.133 -->
<g id="edge35" class="edge">
<title>constant.3&#45;&gt;all&#45;gather.133</title>
<path fill="none" stroke="black" d="M486.43,-333.08C476.22,-324.15 463.27,-312.81 451.86,-302.83"/>
<polygon fill="black" stroke="black" points="454.47,-300.46 444.64,-296.51 449.86,-305.73 454.47,-300.46"/>
</g>
<!-- get&#45;tuple&#45;element.134 -->
<g id="node36" class="node">
<title>get&#45;tuple&#45;element.134</title>
<ellipse fill="none" stroke="black" cx="424.59" cy="-205.97" rx="92.81" ry="18"/>
<text text-anchor="middle" x="424.59" y="-200.92" font-family="Times,serif" font-size="14.00">get&#45;tuple&#45;element.134</text>
</g>
<!-- all&#45;gather.133&#45;&gt;get&#45;tuple&#45;element.134 -->
<g id="edge37" class="edge">
<title>all&#45;gather.133&#45;&gt;get&#45;tuple&#45;element.134</title>
<path fill="none" stroke="black" d="M424.59,-259.66C424.59,-252.37 424.59,-243.69 424.59,-235.5"/>
<polygon fill="black" stroke="black" points="428.09,-235.58 424.59,-225.58 421.09,-235.58 428.09,-235.58"/>
</g>
<!-- get&#45;tuple&#45;element.134&#45;&gt;slice.136 -->
<g id="edge38" class="edge">
<title>get&#45;tuple&#45;element.134&#45;&gt;slice.136</title>
<path fill="none" stroke="black" d="M424.59,-187.79C424.59,-180.7 424.59,-172.17 424.59,-163.68"/>
<polygon fill="black" stroke="black" points="428.09,-163.79 424.59,-153.79 421.09,-163.79 428.09,-163.79"/>
</g>
</g>
</svg>
